<?xml version="1.0" encoding="UTF-8" standalone="no"?>
<svg
   xmlns:dc="http://purl.org/dc/elements/1.1/"
   xmlns:cc="http://creativecommons.org/ns#"
   xmlns:rdf="http://www.w3.org/1999/02/22-rdf-syntax-ns#"
   xmlns:svg="http://www.w3.org/2000/svg"
   xmlns="http://www.w3.org/2000/svg"
   xmlns:sodipodi="http://sodipodi.sourceforge.net/DTD/sodipodi-0.dtd"
   xmlns:inkscape="http://www.inkscape.org/namespaces/inkscape"
   enable-background="new 0 0 48 48"
   height="52.262493"
   version="1.1"
   viewBox="0 0 48.996086 48.996086"
   width="52.262493"
   xml:space="preserve"
   id="svg2"
   inkscape:version="0.92.1 r15371"
   sodipodi:docname="icon.svg"
   inkscape:export-filename="C:\tmp\icon.png"
   inkscape:export-xdpi="470.23999"
   inkscape:export-ydpi="470.23999"><metadata
     id="metadata67"><rdf:RDF><cc:Work
         rdf:about=""><dc:format>image/svg+xml</dc:format><dc:type
           rdf:resource="http://purl.org/dc/dcmitype/StillImage" /><dc:title></dc:title></cc:Work></rdf:RDF></metadata><defs
     id="defs65" /><sodipodi:namedview
     pagecolor="#ffffff"
     bordercolor="#666666"
     borderopacity="1"
     objecttolerance="10"
     gridtolerance="10"
     guidetolerance="10"
     inkscape:pageopacity="0"
     inkscape:pageshadow="2"
     inkscape:window-width="958"
     inkscape:window-height="1153"
     id="namedview63"
     showgrid="false"
     fit-margin-top="0"
     fit-margin-left="0"
     fit-margin-right="0"
     fit-margin-bottom="0"
     inkscape:zoom="6.9532165"
     inkscape:cx="20.656187"
     inkscape:cy="10.378248"
     inkscape:window-x="0"
     inkscape:window-y="0"
     inkscape:window-maximized="0"
     inkscape:current-layer="svg2" /><g
     style="fill:#ffffff;fill-opacity:1;stroke:none;stroke-opacity:1"
     id="g19"
     transform="translate(0.49804306,0.49804306)"><path
       style="fill:#ffffff;fill-opacity:1;stroke:none;stroke-opacity:1"
       d="M 9,25 H 5 C 4.448,25 4,24.553 4,24 4,23.447 4.448,23 5,23 h 4 c 0.552,0 1,0.447 1,1 0,0.553 -0.448,1 -1,1 z"
       id="path21"
       inkscape:connector-curvature="0" /></g><g
     style="fill:#ffffff;fill-opacity:1;stroke:none;stroke-opacity:1"
     id="g23"
     transform="translate(0.49804306,0.49804306)"><path
       style="fill:#ffffff;fill-opacity:1;stroke:none;stroke-opacity:1"
       d="m 6.447,32.271 c -0.393,0 -0.765,-0.232 -0.924,-0.617 -0.211,-0.511 0.031,-1.096 0.542,-1.307 l 3.696,-1.53 c 0.509,-0.213 1.095,0.03 1.306,0.541 0.211,0.511 -0.031,1.096 -0.542,1.307 l -3.696,1.53 c -0.125,0.051 -0.255,0.076 -0.382,0.076 z"
       id="path25"
       inkscape:connector-curvature="0" /></g><g
     style="fill:#ffffff;fill-opacity:1;stroke:none;stroke-opacity:1"
     id="g27"
     transform="translate(0.49804306,0.49804306)"><path
       style="fill:#ffffff;fill-opacity:1;stroke:none;stroke-opacity:1"
       d="m 41.552,32.271 c -0.127,0 -0.257,-0.024 -0.382,-0.076 l -3.695,-1.531 c -0.51,-0.212 -0.752,-0.797 -0.541,-1.307 0.211,-0.511 0.797,-0.754 1.307,-0.541 l 3.695,1.531 c 0.51,0.212 0.752,0.797 0.541,1.307 -0.161,0.385 -0.533,0.617 -0.925,0.617 z"
       id="path29"
       inkscape:connector-curvature="0" /></g><g
     style="fill:#ffffff;fill-opacity:1;stroke:none;stroke-opacity:1"
     id="g31"
     transform="translate(0.49804306,0.49804306)"><path
       style="fill:#ffffff;fill-opacity:1;stroke:none;stroke-opacity:1"
       d="m 42.999,25.001 v 0 l -4,-0.001 c -0.552,0 -1,-0.448 -1,-1 0,-0.553 0.448,-1 1,-1 v 0 l 4,0.001 c 0.553,0 1,0.448 1,1 0,0.553 -0.448,1 -1,1 z"
       id="path33"
       inkscape:connector-curvature="0" /></g><g
     style="fill:#ffffff;fill-opacity:1;stroke:none;stroke-opacity:1"
     id="g35"
     transform="translate(0.49804306,0.49804306)"><path
       style="fill:#ffffff;fill-opacity:1;stroke:none;stroke-opacity:1"
       d="m 37.858,19.26 c -0.393,0 -0.765,-0.232 -0.924,-0.617 -0.211,-0.511 0.031,-1.096 0.542,-1.307 l 3.695,-1.529 c 0.509,-0.211 1.095,0.031 1.306,0.541 0.211,0.511 -0.031,1.096 -0.542,1.307 l -3.695,1.529 c -0.125,0.051 -0.254,0.076 -0.382,0.076 z"
       id="path37"
       inkscape:connector-curvature="0" /></g><g
     style="fill:#ffffff;fill-opacity:1;stroke:none;stroke-opacity:1"
     id="g39"
     transform="translate(0.49804306,0.49804306)"><path
       style="fill:#ffffff;fill-opacity:1;stroke:none;stroke-opacity:1"
       d="m 29.74,11.142 c -0.127,0 -0.257,-0.024 -0.382,-0.076 -0.51,-0.212 -0.752,-0.797 -0.541,-1.307 l 1.531,-3.694 c 0.211,-0.51 0.796,-0.752 1.307,-0.541 0.51,0.212 0.752,0.797 0.541,1.307 l -1.531,3.694 c -0.161,0.384 -0.533,0.617 -0.925,0.617 z"
       id="path41"
       inkscape:connector-curvature="0" /></g><g
     style="fill:#ffffff;fill-opacity:1;stroke:none;stroke-opacity:1"
     id="g43"
     transform="translate(0.49804306,0.49804306)"><path
       style="fill:#ffffff;fill-opacity:1;stroke:none;stroke-opacity:1"
       d="m 24,10 v 0 C 23.447,10 23,9.552 23,9 l 0.001,-3.999 c 0,-0.553 0.448,-1 1,-1 v 0 c 0.553,0 1,0.448 1,1 L 25,9 c 0,0.553 -0.448,1 -1,1 z"
       id="path45"
       inkscape:connector-curvature="0" /></g><g
     style="fill:#ffffff;fill-opacity:1;stroke:none;stroke-opacity:1"
     id="g47"
     transform="translate(0.49804306,0.49804306)"><path
       style="fill:#ffffff;fill-opacity:1;stroke:none;stroke-opacity:1"
       d="m 18.26,11.142 c -0.393,0 -0.765,-0.232 -0.924,-0.617 L 15.807,6.83 c -0.211,-0.511 0.031,-1.096 0.542,-1.307 0.51,-0.212 1.096,0.031 1.306,0.541 l 1.529,3.695 c 0.211,0.511 -0.031,1.096 -0.542,1.307 -0.125,0.051 -0.254,0.076 -0.382,0.076 z"
       id="path49"
       inkscape:connector-curvature="0" /></g><g
     style="fill:#ffffff;fill-opacity:1;stroke:none;stroke-opacity:1"
     id="g51"
     transform="translate(0.49804306,0.49804306)"><path
       style="fill:#ffffff;fill-opacity:1;stroke:none;stroke-opacity:1"
       d="m 13.394,14.394 c -0.256,0 -0.512,-0.098 -0.708,-0.293 L 9.859,11.272 c -0.39,-0.391 -0.39,-1.024 0,-1.414 0.391,-0.391 1.024,-0.391 1.415,0 l 2.827,2.829 c 0.39,0.391 0.39,1.024 0,1.414 -0.196,0.195 -0.452,0.293 -0.707,0.293 z"
       id="path53"
       inkscape:connector-curvature="0" /></g><g
     style="fill:#ffffff;fill-opacity:1;stroke:none;stroke-opacity:1"
     id="g55"
     transform="translate(0.49804306,0.49804306)"><path
       style="fill:#ffffff;fill-opacity:1;stroke:none;stroke-opacity:1"
       d="m 10.142,19.26 c -0.127,0 -0.257,-0.024 -0.383,-0.076 L 6.064,17.652 C 5.554,17.44 5.312,16.855 5.523,16.345 5.734,15.835 6.318,15.592 6.83,15.804 l 3.695,1.532 c 0.51,0.212 0.752,0.797 0.541,1.307 -0.16,0.384 -0.532,0.617 -0.924,0.617 z"
       id="path57"
       inkscape:connector-curvature="0" /></g><g
     style="fill:#ffffff;fill-opacity:1;stroke:none;stroke-opacity:1"
     id="g59"
     transform="translate(0.49804306,0.49804306)"><path
       style="fill:#ffffff;fill-opacity:1;stroke:none;stroke-opacity:1"
       d="M 33,40 H 15 c -0.552,0 -1,-0.447 -1,-1 v -6 c 0,-0.553 0.448,-1 1,-1 h 18 c 0.552,0 1,0.447 1,1 v 6 c 0,0.553 -0.448,1 -1,1 z M 16,38 H 32 V 34 H 16 Z"
       id="path61"
       inkscape:connector-curvature="0" /></g><g
     style="fill:#666666;fill-opacity:1;stroke:none;stroke-opacity:1"
     id="g11"
     transform="translate(0.49804306,0.49804306)"><path
       style="fill:#ffffff;fill-opacity:1;stroke:none;stroke-opacity:1"
       d="m 24,28 c -2.206,0 -4,-1.794 -4,-4 0,-2.206 1.794,-4 4,-4 2.206,0 4,1.794 4,4 0,2.206 -1.794,4 -4,4 z m 0,-6 c -1.103,0 -2,0.897 -2,2 0,1.103 0.897,2 2,2 1.103,0 2,-0.897 2,-2 0,-1.103 -0.897,-2 -2,-2 z"
       id="path13"
       inkscape:connector-curvature="0" /></g><g
     style="fill:none;fill-opacity:1;stroke:none;stroke-opacity:1"
     id="g15"
     transform="translate(0.49804306,0.49804306)"><path
       style="fill:#ffffff;fill-opacity:1;stroke:none;stroke-opacity:1"
       d="m 26.122,22.879 c -0.256,0 -0.512,-0.098 -0.707,-0.293 -0.391,-0.391 -0.391,-1.023 0,-1.414 l 9.899,-9.899 c 0.391,-0.391 1.023,-0.391 1.414,0 0.391,0.391 0.391,1.023 0,1.414 l -9.899,9.899 c -0.196,0.195 -0.452,0.293 -0.707,0.293 z"
       id="path17"
       inkscape:connector-curvature="0" /></g></svg>